<mxfile host="app.diagrams.net" agent="Mozilla/5.0 (Windows NT 10.0; Win64; x64) AppleWebKit/537.36 (KHTML, like Gecko) Chrome/127.0.0.0 Safari/537.36" version="24.7.7">
  <diagram name="Sayfa -1" id="vkH85FuUOVafULKhIhEg">
    <mxGraphModel dx="1932" dy="1818" grid="1" gridSize="10" guides="1" tooltips="1" connect="1" arrows="1" fold="1" page="1" pageScale="1" pageWidth="827" pageHeight="1169" math="0" shadow="0">
      <root>
        <mxCell id="0" />
        <mxCell id="1" parent="0" />
        <mxCell id="K5wTqowA4LdvS_4ebITg-2" value="MENU_ITEM" style="rounded=0;whiteSpace=wrap;html=1;fontSize=14;" vertex="1" parent="1">
          <mxGeometry x="244" y="372.25" width="120" height="30" as="geometry" />
        </mxCell>
        <mxCell id="K5wTqowA4LdvS_4ebITg-4" value="DAILY_MENU" style="rounded=0;whiteSpace=wrap;html=1;fontSize=14;" vertex="1" parent="1">
          <mxGeometry x="-180" y="320" width="120" height="30" as="geometry" />
        </mxCell>
        <mxCell id="K5wTqowA4LdvS_4ebITg-7" value="USER" style="rounded=0;whiteSpace=wrap;html=1;fontSize=14;" vertex="1" parent="1">
          <mxGeometry x="400" y="80" width="120" height="30" as="geometry" />
        </mxCell>
        <mxCell id="K5wTqowA4LdvS_4ebITg-9" value="CATEGORY" style="rounded=0;whiteSpace=wrap;html=1;fontSize=14;" vertex="1" parent="1">
          <mxGeometry x="750" y="450" width="120" height="30" as="geometry" />
        </mxCell>
        <mxCell id="K5wTqowA4LdvS_4ebITg-11" value="INGREDIENT" style="rounded=0;whiteSpace=wrap;html=1;fontSize=14;" vertex="1" parent="1">
          <mxGeometry x="920" y="270" width="120" height="30" as="geometry" />
        </mxCell>
        <mxCell id="K5wTqowA4LdvS_4ebITg-13" value="&lt;u&gt;Id&lt;/u&gt;" style="ellipse;whiteSpace=wrap;html=1;" vertex="1" parent="1">
          <mxGeometry x="254" y="-270" width="100" height="40" as="geometry" />
        </mxCell>
        <mxCell id="K5wTqowA4LdvS_4ebITg-14" value="" style="endArrow=none;html=1;rounded=0;" edge="1" parent="1" source="K5wTqowA4LdvS_4ebITg-7" target="K5wTqowA4LdvS_4ebITg-13">
          <mxGeometry width="50" height="50" relative="1" as="geometry">
            <mxPoint x="530" y="60" as="sourcePoint" />
            <mxPoint x="580" y="10" as="targetPoint" />
          </mxGeometry>
        </mxCell>
        <mxCell id="K5wTqowA4LdvS_4ebITg-21" value="Is_active" style="ellipse;whiteSpace=wrap;html=1;" vertex="1" parent="1">
          <mxGeometry x="430" y="-150" width="100" height="40" as="geometry" />
        </mxCell>
        <mxCell id="K5wTqowA4LdvS_4ebITg-22" value="Is_superuser" style="ellipse;whiteSpace=wrap;html=1;" vertex="1" parent="1">
          <mxGeometry x="314" y="-130" width="100" height="40" as="geometry" />
        </mxCell>
        <mxCell id="K5wTqowA4LdvS_4ebITg-27" value="" style="endArrow=none;html=1;rounded=0;" edge="1" parent="1" source="K5wTqowA4LdvS_4ebITg-7" target="K5wTqowA4LdvS_4ebITg-19">
          <mxGeometry width="50" height="50" relative="1" as="geometry">
            <mxPoint x="590" y="80" as="sourcePoint" />
            <mxPoint x="520" y="40" as="targetPoint" />
          </mxGeometry>
        </mxCell>
        <mxCell id="K5wTqowA4LdvS_4ebITg-15" value="&lt;u&gt;Username&lt;/u&gt;" style="ellipse;whiteSpace=wrap;html=1;" vertex="1" parent="1">
          <mxGeometry x="160" y="-100" width="100" height="40" as="geometry" />
        </mxCell>
        <mxCell id="K5wTqowA4LdvS_4ebITg-16" value="&lt;u&gt;Email&lt;/u&gt;" style="ellipse;whiteSpace=wrap;html=1;" vertex="1" parent="1">
          <mxGeometry x="364" y="-210" width="100" height="40" as="geometry" />
        </mxCell>
        <mxCell id="K5wTqowA4LdvS_4ebITg-17" value="Password" style="ellipse;whiteSpace=wrap;html=1;" vertex="1" parent="1">
          <mxGeometry x="550" y="-190" width="100" height="40" as="geometry" />
        </mxCell>
        <mxCell id="K5wTqowA4LdvS_4ebITg-18" value="First_name" style="ellipse;whiteSpace=wrap;html=1;" vertex="1" parent="1">
          <mxGeometry x="354" y="-320" width="100" height="40" as="geometry" />
        </mxCell>
        <mxCell id="K5wTqowA4LdvS_4ebITg-19" value="Last_name" style="ellipse;whiteSpace=wrap;html=1;" vertex="1" parent="1">
          <mxGeometry x="480" y="-100" width="100" height="40" as="geometry" />
        </mxCell>
        <mxCell id="K5wTqowA4LdvS_4ebITg-20" value="Is_staff" style="ellipse;whiteSpace=wrap;html=1;" vertex="1" parent="1">
          <mxGeometry x="460" y="-270" width="100" height="40" as="geometry" />
        </mxCell>
        <mxCell id="K5wTqowA4LdvS_4ebITg-23" value="Last_login" style="ellipse;whiteSpace=wrap;html=1;" vertex="1" parent="1">
          <mxGeometry x="590" y="-115" width="100" height="40" as="geometry" />
        </mxCell>
        <mxCell id="K5wTqowA4LdvS_4ebITg-24" value="Date_joined" style="ellipse;whiteSpace=wrap;html=1;" vertex="1" parent="1">
          <mxGeometry x="280" y="-70" width="100" height="40" as="geometry" />
        </mxCell>
        <mxCell id="K5wTqowA4LdvS_4ebITg-25" value="Tshirt_color" style="ellipse;whiteSpace=wrap;html=1;" vertex="1" parent="1">
          <mxGeometry x="214" y="-170" width="100" height="40" as="geometry" />
        </mxCell>
        <mxCell id="K5wTqowA4LdvS_4ebITg-29" value="" style="endArrow=none;html=1;rounded=0;" edge="1" parent="1" source="K5wTqowA4LdvS_4ebITg-7" target="K5wTqowA4LdvS_4ebITg-18">
          <mxGeometry width="50" height="50" relative="1" as="geometry">
            <mxPoint x="460" y="80" as="sourcePoint" />
            <mxPoint x="330" y="30" as="targetPoint" />
          </mxGeometry>
        </mxCell>
        <mxCell id="K5wTqowA4LdvS_4ebITg-30" value="" style="endArrow=none;html=1;rounded=0;" edge="1" parent="1" source="K5wTqowA4LdvS_4ebITg-7" target="K5wTqowA4LdvS_4ebITg-24">
          <mxGeometry width="50" height="50" relative="1" as="geometry">
            <mxPoint x="530" y="60" as="sourcePoint" />
            <mxPoint x="410" y="-10" as="targetPoint" />
          </mxGeometry>
        </mxCell>
        <mxCell id="K5wTqowA4LdvS_4ebITg-31" value="" style="endArrow=none;html=1;rounded=0;" edge="1" parent="1" source="K5wTqowA4LdvS_4ebITg-7" target="K5wTqowA4LdvS_4ebITg-15">
          <mxGeometry width="50" height="50" relative="1" as="geometry">
            <mxPoint x="530" y="60" as="sourcePoint" />
            <mxPoint x="580" y="10" as="targetPoint" />
          </mxGeometry>
        </mxCell>
        <mxCell id="K5wTqowA4LdvS_4ebITg-32" value="" style="endArrow=none;html=1;rounded=0;" edge="1" parent="1" source="K5wTqowA4LdvS_4ebITg-7" target="K5wTqowA4LdvS_4ebITg-16">
          <mxGeometry width="50" height="50" relative="1" as="geometry">
            <mxPoint x="530" y="60" as="sourcePoint" />
            <mxPoint x="580" y="10" as="targetPoint" />
          </mxGeometry>
        </mxCell>
        <mxCell id="K5wTqowA4LdvS_4ebITg-33" value="" style="endArrow=none;html=1;rounded=0;" edge="1" parent="1" source="K5wTqowA4LdvS_4ebITg-7" target="K5wTqowA4LdvS_4ebITg-17">
          <mxGeometry width="50" height="50" relative="1" as="geometry">
            <mxPoint x="530" y="60" as="sourcePoint" />
            <mxPoint x="580" y="10" as="targetPoint" />
          </mxGeometry>
        </mxCell>
        <mxCell id="K5wTqowA4LdvS_4ebITg-34" value="" style="endArrow=none;html=1;rounded=0;" edge="1" parent="1" source="K5wTqowA4LdvS_4ebITg-7" target="K5wTqowA4LdvS_4ebITg-20">
          <mxGeometry width="50" height="50" relative="1" as="geometry">
            <mxPoint x="530" y="60" as="sourcePoint" />
            <mxPoint x="580" y="10" as="targetPoint" />
          </mxGeometry>
        </mxCell>
        <mxCell id="K5wTqowA4LdvS_4ebITg-35" value="" style="endArrow=none;html=1;rounded=0;" edge="1" parent="1" source="K5wTqowA4LdvS_4ebITg-7" target="K5wTqowA4LdvS_4ebITg-23">
          <mxGeometry width="50" height="50" relative="1" as="geometry">
            <mxPoint x="530" y="60" as="sourcePoint" />
            <mxPoint x="580" y="10" as="targetPoint" />
          </mxGeometry>
        </mxCell>
        <mxCell id="K5wTqowA4LdvS_4ebITg-36" value="" style="endArrow=none;html=1;rounded=0;" edge="1" parent="1" source="K5wTqowA4LdvS_4ebITg-7" target="K5wTqowA4LdvS_4ebITg-25">
          <mxGeometry width="50" height="50" relative="1" as="geometry">
            <mxPoint x="530" y="60" as="sourcePoint" />
            <mxPoint x="800" y="50" as="targetPoint" />
          </mxGeometry>
        </mxCell>
        <mxCell id="K5wTqowA4LdvS_4ebITg-37" value="" style="endArrow=none;html=1;rounded=0;" edge="1" parent="1" source="K5wTqowA4LdvS_4ebITg-7" target="K5wTqowA4LdvS_4ebITg-22">
          <mxGeometry width="50" height="50" relative="1" as="geometry">
            <mxPoint x="460" y="80" as="sourcePoint" />
            <mxPoint x="580" y="10" as="targetPoint" />
          </mxGeometry>
        </mxCell>
        <mxCell id="K5wTqowA4LdvS_4ebITg-38" value="" style="endArrow=none;html=1;rounded=0;" edge="1" parent="1" source="K5wTqowA4LdvS_4ebITg-21" target="K5wTqowA4LdvS_4ebITg-7">
          <mxGeometry width="50" height="50" relative="1" as="geometry">
            <mxPoint x="530" y="60" as="sourcePoint" />
            <mxPoint x="460" y="80" as="targetPoint" />
          </mxGeometry>
        </mxCell>
        <mxCell id="K5wTqowA4LdvS_4ebITg-48" value="&lt;u&gt;Id&lt;/u&gt;" style="ellipse;whiteSpace=wrap;html=1;" vertex="1" parent="1">
          <mxGeometry x="-260" y="440" width="100" height="40" as="geometry" />
        </mxCell>
        <mxCell id="K5wTqowA4LdvS_4ebITg-49" value="" style="endArrow=none;html=1;rounded=0;" edge="1" parent="1" source="K5wTqowA4LdvS_4ebITg-48" target="K5wTqowA4LdvS_4ebITg-4">
          <mxGeometry width="50" height="50" relative="1" as="geometry">
            <mxPoint x="100" y="190" as="sourcePoint" />
            <mxPoint x="150" y="140" as="targetPoint" />
          </mxGeometry>
        </mxCell>
        <mxCell id="K5wTqowA4LdvS_4ebITg-50" value="&lt;u&gt;Served_at&lt;/u&gt;" style="ellipse;whiteSpace=wrap;html=1;" vertex="1" parent="1">
          <mxGeometry x="-360" y="402.25" width="100" height="40" as="geometry" />
        </mxCell>
        <mxCell id="K5wTqowA4LdvS_4ebITg-51" value="Servings" style="ellipse;whiteSpace=wrap;html=1;" vertex="1" parent="1">
          <mxGeometry x="-430" y="360" width="100" height="40" as="geometry" />
        </mxCell>
        <mxCell id="K5wTqowA4LdvS_4ebITg-52" value="" style="endArrow=none;html=1;rounded=0;" edge="1" parent="1" source="K5wTqowA4LdvS_4ebITg-4" target="K5wTqowA4LdvS_4ebITg-51">
          <mxGeometry width="50" height="50" relative="1" as="geometry">
            <mxPoint x="-90" y="280" as="sourcePoint" />
            <mxPoint x="-40" y="230" as="targetPoint" />
          </mxGeometry>
        </mxCell>
        <mxCell id="K5wTqowA4LdvS_4ebITg-53" value="" style="endArrow=none;html=1;rounded=0;" edge="1" parent="1" source="K5wTqowA4LdvS_4ebITg-4" target="K5wTqowA4LdvS_4ebITg-50">
          <mxGeometry width="50" height="50" relative="1" as="geometry">
            <mxPoint x="-90" y="280" as="sourcePoint" />
            <mxPoint x="-40" y="230" as="targetPoint" />
          </mxGeometry>
        </mxCell>
        <mxCell id="K5wTqowA4LdvS_4ebITg-91" value="" style="endArrow=none;html=1;rounded=0;exitX=1;exitY=0.5;exitDx=0;exitDy=0;" edge="1" parent="1" source="K5wTqowA4LdvS_4ebITg-179" target="K5wTqowA4LdvS_4ebITg-87">
          <mxGeometry width="50" height="50" relative="1" as="geometry">
            <mxPoint x="1049.48" y="307.25" as="sourcePoint" />
            <mxPoint x="1399.48" y="-90" as="targetPoint" />
          </mxGeometry>
        </mxCell>
        <mxCell id="K5wTqowA4LdvS_4ebITg-92" value="N" style="edgeLabel;html=1;align=center;verticalAlign=middle;resizable=0;points=[];" vertex="1" connectable="0" parent="K5wTqowA4LdvS_4ebITg-91">
          <mxGeometry x="-0.6842" relative="1" as="geometry">
            <mxPoint x="-10" y="-20" as="offset" />
          </mxGeometry>
        </mxCell>
        <mxCell id="K5wTqowA4LdvS_4ebITg-101" value="MANAGES" style="rhombus;whiteSpace=wrap;html=1;" vertex="1" parent="1">
          <mxGeometry x="-80" y="100" width="80" height="80" as="geometry" />
        </mxCell>
        <mxCell id="K5wTqowA4LdvS_4ebITg-102" value="" style="endArrow=none;html=1;rounded=0;exitX=1;exitY=0.5;exitDx=0;exitDy=0;" edge="1" parent="1" source="K5wTqowA4LdvS_4ebITg-101" target="K5wTqowA4LdvS_4ebITg-7">
          <mxGeometry width="50" height="50" relative="1" as="geometry">
            <mxPoint x="50" y="280" as="sourcePoint" />
            <mxPoint x="172" y="110" as="targetPoint" />
          </mxGeometry>
        </mxCell>
        <mxCell id="K5wTqowA4LdvS_4ebITg-103" value="1" style="edgeLabel;html=1;align=center;verticalAlign=middle;resizable=0;points=[];" vertex="1" connectable="0" parent="K5wTqowA4LdvS_4ebITg-102">
          <mxGeometry x="-0.8697" relative="1" as="geometry">
            <mxPoint x="-9" y="-5" as="offset" />
          </mxGeometry>
        </mxCell>
        <mxCell id="K5wTqowA4LdvS_4ebITg-104" value="" style="endArrow=none;html=1;rounded=0;entryX=0.5;entryY=1;entryDx=0;entryDy=0;shape=link;" edge="1" parent="1" source="K5wTqowA4LdvS_4ebITg-4" target="K5wTqowA4LdvS_4ebITg-101">
          <mxGeometry width="50" height="50" relative="1" as="geometry">
            <mxPoint x="50" y="280" as="sourcePoint" />
            <mxPoint x="100" y="230" as="targetPoint" />
          </mxGeometry>
        </mxCell>
        <mxCell id="K5wTqowA4LdvS_4ebITg-105" value="N" style="edgeLabel;html=1;align=center;verticalAlign=middle;resizable=0;points=[];" vertex="1" connectable="0" parent="K5wTqowA4LdvS_4ebITg-104">
          <mxGeometry x="0.8012" y="2" relative="1" as="geometry">
            <mxPoint x="-8" y="-8" as="offset" />
          </mxGeometry>
        </mxCell>
        <mxCell id="K5wTqowA4LdvS_4ebITg-106" value="SELECTS" style="rhombus;whiteSpace=wrap;html=1;" vertex="1" parent="1">
          <mxGeometry x="150" y="235" width="80" height="80" as="geometry" />
        </mxCell>
        <mxCell id="K5wTqowA4LdvS_4ebITg-107" value="" style="endArrow=none;html=1;rounded=0;" edge="1" parent="1" source="K5wTqowA4LdvS_4ebITg-108" target="K5wTqowA4LdvS_4ebITg-106">
          <mxGeometry width="50" height="50" relative="1" as="geometry">
            <mxPoint x="100" y="240" as="sourcePoint" />
            <mxPoint x="100" y="230" as="targetPoint" />
          </mxGeometry>
        </mxCell>
        <mxCell id="K5wTqowA4LdvS_4ebITg-108" value="Selected_&lt;div&gt;menu_items&lt;/div&gt;" style="ellipse;whiteSpace=wrap;html=1;" vertex="1" parent="1">
          <mxGeometry x="30" y="240" width="100" height="40" as="geometry" />
        </mxCell>
        <mxCell id="K5wTqowA4LdvS_4ebITg-109" value="" style="endArrow=none;html=1;rounded=0;entryX=0.5;entryY=0;entryDx=0;entryDy=0;" edge="1" parent="1" source="K5wTqowA4LdvS_4ebITg-7" target="K5wTqowA4LdvS_4ebITg-106">
          <mxGeometry width="50" height="50" relative="1" as="geometry">
            <mxPoint x="202.75862068965534" y="110" as="sourcePoint" />
            <mxPoint x="90" y="230" as="targetPoint" />
          </mxGeometry>
        </mxCell>
        <mxCell id="K5wTqowA4LdvS_4ebITg-110" value="1" style="edgeLabel;html=1;align=center;verticalAlign=middle;resizable=0;points=[];" vertex="1" connectable="0" parent="K5wTqowA4LdvS_4ebITg-109">
          <mxGeometry x="0.8094" y="-1" relative="1" as="geometry">
            <mxPoint x="-10" y="2" as="offset" />
          </mxGeometry>
        </mxCell>
        <mxCell id="K5wTqowA4LdvS_4ebITg-113" value="" style="endArrow=none;html=1;rounded=0;entryX=0.5;entryY=1;entryDx=0;entryDy=0;" edge="1" parent="1" source="K5wTqowA4LdvS_4ebITg-2" target="K5wTqowA4LdvS_4ebITg-106">
          <mxGeometry width="50" height="50" relative="1" as="geometry">
            <mxPoint x="260" y="200" as="sourcePoint" />
            <mxPoint x="130" y="210" as="targetPoint" />
          </mxGeometry>
        </mxCell>
        <mxCell id="K5wTqowA4LdvS_4ebITg-129" value="N" style="edgeLabel;html=1;align=center;verticalAlign=middle;resizable=0;points=[];" vertex="1" connectable="0" parent="K5wTqowA4LdvS_4ebITg-113">
          <mxGeometry x="0.5708" y="2" relative="1" as="geometry">
            <mxPoint x="7" y="-7" as="offset" />
          </mxGeometry>
        </mxCell>
        <mxCell id="K5wTqowA4LdvS_4ebITg-114" value="Created_by" style="ellipse;whiteSpace=wrap;html=1;" vertex="1" parent="1">
          <mxGeometry x="-390" y="120" width="100" height="40" as="geometry" />
        </mxCell>
        <mxCell id="K5wTqowA4LdvS_4ebITg-115" value="Updated_at" style="ellipse;whiteSpace=wrap;html=1;" vertex="1" parent="1">
          <mxGeometry x="-450" y="305" width="100" height="40" as="geometry" />
        </mxCell>
        <mxCell id="K5wTqowA4LdvS_4ebITg-116" value="Created_at" style="ellipse;whiteSpace=wrap;html=1;" vertex="1" parent="1">
          <mxGeometry x="-410" y="180" width="100" height="40" as="geometry" />
        </mxCell>
        <mxCell id="K5wTqowA4LdvS_4ebITg-117" value="Updated_by" style="ellipse;whiteSpace=wrap;html=1;" vertex="1" parent="1">
          <mxGeometry x="-440" y="240" width="100" height="40" as="geometry" />
        </mxCell>
        <mxCell id="K5wTqowA4LdvS_4ebITg-118" value="" style="endArrow=none;html=1;rounded=0;" edge="1" parent="1" source="K5wTqowA4LdvS_4ebITg-4" target="K5wTqowA4LdvS_4ebITg-114">
          <mxGeometry width="50" height="50" relative="1" as="geometry">
            <mxPoint x="70" y="250" as="sourcePoint" />
            <mxPoint x="120" y="200" as="targetPoint" />
          </mxGeometry>
        </mxCell>
        <mxCell id="K5wTqowA4LdvS_4ebITg-119" value="" style="endArrow=none;html=1;rounded=0;" edge="1" parent="1" source="K5wTqowA4LdvS_4ebITg-116" target="K5wTqowA4LdvS_4ebITg-4">
          <mxGeometry width="50" height="50" relative="1" as="geometry">
            <mxPoint x="70" y="250" as="sourcePoint" />
            <mxPoint x="120" y="200" as="targetPoint" />
          </mxGeometry>
        </mxCell>
        <mxCell id="K5wTqowA4LdvS_4ebITg-120" value="" style="endArrow=none;html=1;rounded=0;" edge="1" parent="1" source="K5wTqowA4LdvS_4ebITg-117" target="K5wTqowA4LdvS_4ebITg-4">
          <mxGeometry width="50" height="50" relative="1" as="geometry">
            <mxPoint x="70" y="250" as="sourcePoint" />
            <mxPoint x="120" y="200" as="targetPoint" />
          </mxGeometry>
        </mxCell>
        <mxCell id="K5wTqowA4LdvS_4ebITg-121" value="" style="endArrow=none;html=1;rounded=0;" edge="1" parent="1" source="K5wTqowA4LdvS_4ebITg-115" target="K5wTqowA4LdvS_4ebITg-4">
          <mxGeometry width="50" height="50" relative="1" as="geometry">
            <mxPoint x="70" y="250" as="sourcePoint" />
            <mxPoint x="120" y="200" as="targetPoint" />
          </mxGeometry>
        </mxCell>
        <mxCell id="K5wTqowA4LdvS_4ebITg-122" value="&lt;u&gt;Id&lt;/u&gt;" style="ellipse;whiteSpace=wrap;html=1;" vertex="1" parent="1">
          <mxGeometry x="254" y="490" width="100" height="40" as="geometry" />
        </mxCell>
        <mxCell id="K5wTqowA4LdvS_4ebITg-123" value="Calories" style="ellipse;whiteSpace=wrap;html=1;" vertex="1" parent="1">
          <mxGeometry x="140" y="490" width="100" height="40" as="geometry" />
        </mxCell>
        <mxCell id="K5wTqowA4LdvS_4ebITg-124" value="Description" style="ellipse;whiteSpace=wrap;html=1;" vertex="1" parent="1">
          <mxGeometry x="30" y="470" width="100" height="40" as="geometry" />
        </mxCell>
        <mxCell id="K5wTqowA4LdvS_4ebITg-125" value="" style="endArrow=none;html=1;rounded=0;" edge="1" parent="1" source="K5wTqowA4LdvS_4ebITg-2" target="K5wTqowA4LdvS_4ebITg-122">
          <mxGeometry width="50" height="50" relative="1" as="geometry">
            <mxPoint x="70" y="360" as="sourcePoint" />
            <mxPoint x="120" y="310" as="targetPoint" />
          </mxGeometry>
        </mxCell>
        <mxCell id="K5wTqowA4LdvS_4ebITg-126" value="" style="endArrow=none;html=1;rounded=0;" edge="1" parent="1" source="K5wTqowA4LdvS_4ebITg-123" target="K5wTqowA4LdvS_4ebITg-2">
          <mxGeometry width="50" height="50" relative="1" as="geometry">
            <mxPoint x="70" y="360" as="sourcePoint" />
            <mxPoint x="120" y="310" as="targetPoint" />
          </mxGeometry>
        </mxCell>
        <mxCell id="K5wTqowA4LdvS_4ebITg-127" value="" style="endArrow=none;html=1;rounded=0;" edge="1" parent="1" source="K5wTqowA4LdvS_4ebITg-124" target="K5wTqowA4LdvS_4ebITg-2">
          <mxGeometry width="50" height="50" relative="1" as="geometry">
            <mxPoint x="70" y="360" as="sourcePoint" />
            <mxPoint x="120" y="310" as="targetPoint" />
          </mxGeometry>
        </mxCell>
        <mxCell id="K5wTqowA4LdvS_4ebITg-130" value="MANAGES" style="rhombus;whiteSpace=wrap;html=1;" vertex="1" parent="1">
          <mxGeometry x="732" y="155.00000000000003" width="80" height="80" as="geometry" />
        </mxCell>
        <mxCell id="K5wTqowA4LdvS_4ebITg-131" value="" style="endArrow=none;html=1;rounded=0;exitX=0;exitY=0.5;exitDx=0;exitDy=0;" edge="1" parent="1" source="K5wTqowA4LdvS_4ebITg-130" target="K5wTqowA4LdvS_4ebITg-7">
          <mxGeometry width="50" height="50" relative="1" as="geometry">
            <mxPoint x="580" y="250" as="sourcePoint" />
            <mxPoint x="630" y="200" as="targetPoint" />
          </mxGeometry>
        </mxCell>
        <mxCell id="K5wTqowA4LdvS_4ebITg-132" value="1" style="edgeLabel;html=1;align=center;verticalAlign=middle;resizable=0;points=[];" vertex="1" connectable="0" parent="K5wTqowA4LdvS_4ebITg-131">
          <mxGeometry x="-0.7489" relative="1" as="geometry">
            <mxPoint x="30" y="-1" as="offset" />
          </mxGeometry>
        </mxCell>
        <mxCell id="K5wTqowA4LdvS_4ebITg-133" value="" style="endArrow=none;html=1;rounded=0;entryX=0.5;entryY=1;entryDx=0;entryDy=0;" edge="1" parent="1" source="K5wTqowA4LdvS_4ebITg-9" target="K5wTqowA4LdvS_4ebITg-130">
          <mxGeometry width="50" height="50" relative="1" as="geometry">
            <mxPoint x="978" y="343.42" as="sourcePoint" />
            <mxPoint x="1028" y="293.42" as="targetPoint" />
          </mxGeometry>
        </mxCell>
        <mxCell id="K5wTqowA4LdvS_4ebITg-148" value="N" style="edgeLabel;html=1;align=center;verticalAlign=middle;resizable=0;points=[];" vertex="1" connectable="0" parent="K5wTqowA4LdvS_4ebITg-133">
          <mxGeometry x="0.7095" y="-1" relative="1" as="geometry">
            <mxPoint y="-8" as="offset" />
          </mxGeometry>
        </mxCell>
        <mxCell id="K5wTqowA4LdvS_4ebITg-134" value="&lt;u&gt;Name&lt;/u&gt;" style="ellipse;whiteSpace=wrap;html=1;" vertex="1" parent="1">
          <mxGeometry x="860" y="545" width="100" height="40" as="geometry" />
        </mxCell>
        <mxCell id="K5wTqowA4LdvS_4ebITg-136" value="&lt;u&gt;Id&lt;/u&gt;" style="ellipse;whiteSpace=wrap;html=1;" vertex="1" parent="1">
          <mxGeometry x="740" y="545" width="100" height="40" as="geometry" />
        </mxCell>
        <mxCell id="K5wTqowA4LdvS_4ebITg-137" value="" style="endArrow=none;html=1;rounded=0;" edge="1" parent="1" source="K5wTqowA4LdvS_4ebITg-9" target="K5wTqowA4LdvS_4ebITg-134">
          <mxGeometry width="50" height="50" relative="1" as="geometry">
            <mxPoint x="1158" y="273.42" as="sourcePoint" />
            <mxPoint x="1208" y="223.42000000000002" as="targetPoint" />
          </mxGeometry>
        </mxCell>
        <mxCell id="K5wTqowA4LdvS_4ebITg-138" value="" style="endArrow=none;html=1;rounded=0;" edge="1" parent="1" source="K5wTqowA4LdvS_4ebITg-9" target="K5wTqowA4LdvS_4ebITg-136">
          <mxGeometry width="50" height="50" relative="1" as="geometry">
            <mxPoint x="1110" y="323.42" as="sourcePoint" />
            <mxPoint x="1205" y="278.42" as="targetPoint" />
          </mxGeometry>
        </mxCell>
        <mxCell id="K5wTqowA4LdvS_4ebITg-139" value="&lt;u&gt;Name&lt;/u&gt;" style="ellipse;whiteSpace=wrap;html=1;" vertex="1" parent="1">
          <mxGeometry x="1280" y="-40" width="100" height="40" as="geometry" />
        </mxCell>
        <mxCell id="K5wTqowA4LdvS_4ebITg-140" value="&lt;u&gt;Id&lt;/u&gt;" style="ellipse;whiteSpace=wrap;html=1;" vertex="1" parent="1">
          <mxGeometry x="1230" y="-150" width="100" height="40" as="geometry" />
        </mxCell>
        <mxCell id="K5wTqowA4LdvS_4ebITg-141" value="" style="endArrow=none;html=1;rounded=0;" edge="1" parent="1" source="K5wTqowA4LdvS_4ebITg-87" target="K5wTqowA4LdvS_4ebITg-139">
          <mxGeometry width="50" height="50" relative="1" as="geometry">
            <mxPoint x="1049.48" y="200" as="sourcePoint" />
            <mxPoint x="1099.48" y="150" as="targetPoint" />
          </mxGeometry>
        </mxCell>
        <mxCell id="K5wTqowA4LdvS_4ebITg-142" value="" style="endArrow=none;html=1;rounded=0;" edge="1" parent="1" source="K5wTqowA4LdvS_4ebITg-87" target="K5wTqowA4LdvS_4ebITg-140">
          <mxGeometry width="50" height="50" relative="1" as="geometry">
            <mxPoint x="1237.48" y="280" as="sourcePoint" />
            <mxPoint x="1307.48" y="245" as="targetPoint" />
          </mxGeometry>
        </mxCell>
        <mxCell id="K5wTqowA4LdvS_4ebITg-143" value="MANAGES" style="rhombus;whiteSpace=wrap;html=1;" vertex="1" parent="1">
          <mxGeometry x="812" y="110" width="80" height="80" as="geometry" />
        </mxCell>
        <mxCell id="K5wTqowA4LdvS_4ebITg-144" value="" style="endArrow=none;html=1;rounded=0;exitX=0;exitY=0.5;exitDx=0;exitDy=0;" edge="1" parent="1" source="K5wTqowA4LdvS_4ebITg-143" target="K5wTqowA4LdvS_4ebITg-7">
          <mxGeometry width="50" height="50" relative="1" as="geometry">
            <mxPoint x="527" y="320" as="sourcePoint" />
            <mxPoint x="467" y="180" as="targetPoint" />
          </mxGeometry>
        </mxCell>
        <mxCell id="K5wTqowA4LdvS_4ebITg-145" value="1" style="edgeLabel;html=1;align=center;verticalAlign=middle;resizable=0;points=[];" vertex="1" connectable="0" parent="K5wTqowA4LdvS_4ebITg-144">
          <mxGeometry x="-0.7489" relative="1" as="geometry">
            <mxPoint x="41" y="9" as="offset" />
          </mxGeometry>
        </mxCell>
        <mxCell id="K5wTqowA4LdvS_4ebITg-146" value="" style="endArrow=none;html=1;rounded=0;entryX=0.5;entryY=1;entryDx=0;entryDy=0;" edge="1" parent="1" target="K5wTqowA4LdvS_4ebITg-143" source="K5wTqowA4LdvS_4ebITg-11">
          <mxGeometry width="50" height="50" relative="1" as="geometry">
            <mxPoint x="853" y="270" as="sourcePoint" />
            <mxPoint x="857" y="250" as="targetPoint" />
          </mxGeometry>
        </mxCell>
        <mxCell id="K5wTqowA4LdvS_4ebITg-149" value="N" style="edgeLabel;html=1;align=center;verticalAlign=middle;resizable=0;points=[];" vertex="1" connectable="0" parent="K5wTqowA4LdvS_4ebITg-146">
          <mxGeometry x="0.7511" y="-4" relative="1" as="geometry">
            <mxPoint x="-17" y="16" as="offset" />
          </mxGeometry>
        </mxCell>
        <mxCell id="K5wTqowA4LdvS_4ebITg-150" value="CREATES/&lt;div&gt;UPDATES&lt;/div&gt;" style="rhombus;whiteSpace=wrap;html=1;" vertex="1" parent="1">
          <mxGeometry x="290" y="210" width="80" height="80" as="geometry" />
        </mxCell>
        <mxCell id="K5wTqowA4LdvS_4ebITg-151" value="" style="endArrow=none;html=1;rounded=0;exitX=0.5;exitY=0;exitDx=0;exitDy=0;" edge="1" parent="1" source="K5wTqowA4LdvS_4ebITg-150" target="K5wTqowA4LdvS_4ebITg-7">
          <mxGeometry width="50" height="50" relative="1" as="geometry">
            <mxPoint x="652.5" y="385" as="sourcePoint" />
            <mxPoint x="774.5" y="215" as="targetPoint" />
          </mxGeometry>
        </mxCell>
        <mxCell id="K5wTqowA4LdvS_4ebITg-152" value="1" style="edgeLabel;html=1;align=center;verticalAlign=middle;resizable=0;points=[];" vertex="1" connectable="0" parent="K5wTqowA4LdvS_4ebITg-151">
          <mxGeometry x="-0.8697" relative="1" as="geometry">
            <mxPoint x="-9" y="-5" as="offset" />
          </mxGeometry>
        </mxCell>
        <mxCell id="K5wTqowA4LdvS_4ebITg-153" value="" style="endArrow=none;html=1;rounded=0;entryX=0.5;entryY=1;entryDx=0;entryDy=0;shape=link;" edge="1" parent="1" target="K5wTqowA4LdvS_4ebITg-150" source="K5wTqowA4LdvS_4ebITg-2">
          <mxGeometry width="50" height="50" relative="1" as="geometry">
            <mxPoint x="494.5" y="425" as="sourcePoint" />
            <mxPoint x="702.5" y="335" as="targetPoint" />
          </mxGeometry>
        </mxCell>
        <mxCell id="K5wTqowA4LdvS_4ebITg-154" value="N" style="edgeLabel;html=1;align=center;verticalAlign=middle;resizable=0;points=[];" vertex="1" connectable="0" parent="K5wTqowA4LdvS_4ebITg-153">
          <mxGeometry x="0.8012" y="2" relative="1" as="geometry">
            <mxPoint x="-8" y="-8" as="offset" />
          </mxGeometry>
        </mxCell>
        <mxCell id="K5wTqowA4LdvS_4ebITg-155" value="SELECTS" style="rhombus;whiteSpace=wrap;html=1;" vertex="1" parent="1">
          <mxGeometry x="670" y="340" width="80" height="80" as="geometry" />
        </mxCell>
        <mxCell id="K5wTqowA4LdvS_4ebITg-156" value="" style="endArrow=none;html=1;rounded=0;" edge="1" parent="1" source="K5wTqowA4LdvS_4ebITg-157" target="K5wTqowA4LdvS_4ebITg-155">
          <mxGeometry width="50" height="50" relative="1" as="geometry">
            <mxPoint x="702.5" y="345" as="sourcePoint" />
            <mxPoint x="702.5" y="335" as="targetPoint" />
          </mxGeometry>
        </mxCell>
        <mxCell id="K5wTqowA4LdvS_4ebITg-157" value="Selected_&lt;div&gt;category&lt;/div&gt;" style="ellipse;whiteSpace=wrap;html=1;" vertex="1" parent="1">
          <mxGeometry x="550" y="395" width="100" height="40" as="geometry" />
        </mxCell>
        <mxCell id="K5wTqowA4LdvS_4ebITg-158" value="" style="endArrow=none;html=1;rounded=0;entryX=0.5;entryY=1;entryDx=0;entryDy=0;" edge="1" parent="1" target="K5wTqowA4LdvS_4ebITg-155" source="K5wTqowA4LdvS_4ebITg-9">
          <mxGeometry width="50" height="50" relative="1" as="geometry">
            <mxPoint x="670" y="270" as="sourcePoint" />
            <mxPoint x="692.5" y="335" as="targetPoint" />
          </mxGeometry>
        </mxCell>
        <mxCell id="K5wTqowA4LdvS_4ebITg-188" value="&lt;div&gt;N&lt;br&gt;&lt;/div&gt;" style="edgeLabel;html=1;align=center;verticalAlign=middle;resizable=0;points=[];" vertex="1" connectable="0" parent="K5wTqowA4LdvS_4ebITg-158">
          <mxGeometry x="0.8757" y="2" relative="1" as="geometry">
            <mxPoint y="-1" as="offset" />
          </mxGeometry>
        </mxCell>
        <mxCell id="K5wTqowA4LdvS_4ebITg-162" value="" style="endArrow=none;html=1;rounded=0;exitX=0;exitY=0.5;exitDx=0;exitDy=0;" edge="1" parent="1" source="K5wTqowA4LdvS_4ebITg-155" target="K5wTqowA4LdvS_4ebITg-7">
          <mxGeometry width="50" height="50" relative="1" as="geometry">
            <mxPoint x="470" y="270" as="sourcePoint" />
            <mxPoint x="520" y="220" as="targetPoint" />
          </mxGeometry>
        </mxCell>
        <mxCell id="K5wTqowA4LdvS_4ebITg-163" value="1" style="edgeLabel;html=1;align=center;verticalAlign=middle;resizable=0;points=[];" vertex="1" connectable="0" parent="K5wTqowA4LdvS_4ebITg-162">
          <mxGeometry x="-0.7997" y="3" relative="1" as="geometry">
            <mxPoint as="offset" />
          </mxGeometry>
        </mxCell>
        <mxCell id="K5wTqowA4LdvS_4ebITg-164" value="&lt;u&gt;Name&lt;/u&gt;" style="ellipse;whiteSpace=wrap;html=1;" vertex="1" parent="1">
          <mxGeometry x="1149.48" y="332.25" width="100" height="40" as="geometry" />
        </mxCell>
        <mxCell id="K5wTqowA4LdvS_4ebITg-165" value="&lt;u&gt;Id&lt;/u&gt;" style="ellipse;whiteSpace=wrap;html=1;" vertex="1" parent="1">
          <mxGeometry x="1087.16" y="377.25" width="100" height="40" as="geometry" />
        </mxCell>
        <mxCell id="K5wTqowA4LdvS_4ebITg-166" value="Unit" style="ellipse;whiteSpace=wrap;html=1;" vertex="1" parent="1">
          <mxGeometry x="1017.16" y="425" width="100" height="40" as="geometry" />
        </mxCell>
        <mxCell id="K5wTqowA4LdvS_4ebITg-167" value="" style="endArrow=none;html=1;rounded=0;" edge="1" parent="1" source="K5wTqowA4LdvS_4ebITg-164" target="K5wTqowA4LdvS_4ebITg-11">
          <mxGeometry width="50" height="50" relative="1" as="geometry">
            <mxPoint x="587.16" y="355" as="sourcePoint" />
            <mxPoint x="1037.16" y="332.5" as="targetPoint" />
          </mxGeometry>
        </mxCell>
        <mxCell id="K5wTqowA4LdvS_4ebITg-168" value="" style="endArrow=none;html=1;rounded=0;" edge="1" parent="1" source="K5wTqowA4LdvS_4ebITg-165" target="K5wTqowA4LdvS_4ebITg-11">
          <mxGeometry width="50" height="50" relative="1" as="geometry">
            <mxPoint x="1108.16" y="299" as="sourcePoint" />
            <mxPoint x="1012.8477323420071" y="345" as="targetPoint" />
          </mxGeometry>
        </mxCell>
        <mxCell id="K5wTqowA4LdvS_4ebITg-169" value="" style="endArrow=none;html=1;rounded=0;fontStyle=1" edge="1" parent="1" source="K5wTqowA4LdvS_4ebITg-166" target="K5wTqowA4LdvS_4ebITg-11">
          <mxGeometry width="50" height="50" relative="1" as="geometry">
            <mxPoint x="1121" y="264" as="sourcePoint" />
            <mxPoint x="1047" y="295" as="targetPoint" />
          </mxGeometry>
        </mxCell>
        <mxCell id="K5wTqowA4LdvS_4ebITg-87" value="UNIT_TYPE" style="rounded=0;whiteSpace=wrap;html=1;fontSize=14;" vertex="1" parent="1">
          <mxGeometry x="1080" y="-55" width="120" height="30" as="geometry" />
        </mxCell>
        <mxCell id="K5wTqowA4LdvS_4ebITg-170" value="INCLUDES" style="rhombus;whiteSpace=wrap;html=1;" vertex="1" parent="1">
          <mxGeometry x="20" y="315" width="80" height="80" as="geometry" />
        </mxCell>
        <mxCell id="K5wTqowA4LdvS_4ebITg-171" value="" style="endArrow=none;html=1;rounded=0;entryX=0;entryY=0.5;entryDx=0;entryDy=0;" edge="1" parent="1" source="K5wTqowA4LdvS_4ebITg-4" target="K5wTqowA4LdvS_4ebITg-170">
          <mxGeometry width="50" height="50" relative="1" as="geometry">
            <mxPoint x="300" y="420" as="sourcePoint" />
            <mxPoint x="350" y="370" as="targetPoint" />
          </mxGeometry>
        </mxCell>
        <mxCell id="K5wTqowA4LdvS_4ebITg-172" value="M" style="edgeLabel;html=1;align=center;verticalAlign=middle;resizable=0;points=[];" vertex="1" connectable="0" parent="K5wTqowA4LdvS_4ebITg-171">
          <mxGeometry x="0.8036" y="-2" relative="1" as="geometry">
            <mxPoint y="10" as="offset" />
          </mxGeometry>
        </mxCell>
        <mxCell id="K5wTqowA4LdvS_4ebITg-173" value="" style="endArrow=none;html=1;rounded=0;exitX=1;exitY=0.5;exitDx=0;exitDy=0;" edge="1" parent="1" source="K5wTqowA4LdvS_4ebITg-170" target="K5wTqowA4LdvS_4ebITg-2">
          <mxGeometry width="50" height="50" relative="1" as="geometry">
            <mxPoint x="180" y="360" as="sourcePoint" />
            <mxPoint x="230" y="310" as="targetPoint" />
          </mxGeometry>
        </mxCell>
        <mxCell id="K5wTqowA4LdvS_4ebITg-174" value="N" style="edgeLabel;html=1;align=center;verticalAlign=middle;resizable=0;points=[];" vertex="1" connectable="0" parent="K5wTqowA4LdvS_4ebITg-173">
          <mxGeometry x="-0.8181" y="1" relative="1" as="geometry">
            <mxPoint y="10" as="offset" />
          </mxGeometry>
        </mxCell>
        <mxCell id="K5wTqowA4LdvS_4ebITg-175" value="" style="endArrow=none;html=1;rounded=0;" edge="1" parent="1" source="K5wTqowA4LdvS_4ebITg-170" target="K5wTqowA4LdvS_4ebITg-108">
          <mxGeometry width="50" height="50" relative="1" as="geometry">
            <mxPoint x="240" y="370" as="sourcePoint" />
            <mxPoint x="290" y="320" as="targetPoint" />
          </mxGeometry>
        </mxCell>
        <mxCell id="K5wTqowA4LdvS_4ebITg-177" value="" style="endArrow=none;html=1;rounded=0;entryX=0;entryY=0.5;entryDx=0;entryDy=0;" edge="1" parent="1" source="K5wTqowA4LdvS_4ebITg-2" target="K5wTqowA4LdvS_4ebITg-200">
          <mxGeometry width="50" height="50" relative="1" as="geometry">
            <mxPoint x="400" y="400" as="sourcePoint" />
            <mxPoint x="510" y="470" as="targetPoint" />
          </mxGeometry>
        </mxCell>
        <mxCell id="K5wTqowA4LdvS_4ebITg-203" value="1" style="edgeLabel;html=1;align=center;verticalAlign=middle;resizable=0;points=[];" vertex="1" connectable="0" parent="K5wTqowA4LdvS_4ebITg-177">
          <mxGeometry x="0.6492" y="-1" relative="1" as="geometry">
            <mxPoint x="1" y="10" as="offset" />
          </mxGeometry>
        </mxCell>
        <mxCell id="K5wTqowA4LdvS_4ebITg-179" value="MANAGES" style="rhombus;whiteSpace=wrap;html=1;" vertex="1" parent="1">
          <mxGeometry x="860" y="-120" width="80" height="80" as="geometry" />
        </mxCell>
        <mxCell id="K5wTqowA4LdvS_4ebITg-181" value="" style="endArrow=none;html=1;rounded=0;entryX=0;entryY=0.5;entryDx=0;entryDy=0;" edge="1" parent="1" source="K5wTqowA4LdvS_4ebITg-7" target="K5wTqowA4LdvS_4ebITg-179">
          <mxGeometry width="50" height="50" relative="1" as="geometry">
            <mxPoint x="740" y="230" as="sourcePoint" />
            <mxPoint x="790" y="180" as="targetPoint" />
          </mxGeometry>
        </mxCell>
        <mxCell id="K5wTqowA4LdvS_4ebITg-182" value="1" style="edgeLabel;html=1;align=center;verticalAlign=middle;resizable=0;points=[];" vertex="1" connectable="0" parent="K5wTqowA4LdvS_4ebITg-181">
          <mxGeometry x="0.9182" y="-2" relative="1" as="geometry">
            <mxPoint x="10" y="-10" as="offset" />
          </mxGeometry>
        </mxCell>
        <mxCell id="K5wTqowA4LdvS_4ebITg-183" value="INCLUDES" style="rhombus;whiteSpace=wrap;html=1;" vertex="1" parent="1">
          <mxGeometry x="1110" y="20" width="80" height="80" as="geometry" />
        </mxCell>
        <mxCell id="K5wTqowA4LdvS_4ebITg-184" value="" style="endArrow=none;html=1;rounded=0;exitX=0.5;exitY=1;exitDx=0;exitDy=0;" edge="1" parent="1" source="K5wTqowA4LdvS_4ebITg-183" target="K5wTqowA4LdvS_4ebITg-11">
          <mxGeometry width="50" height="50" relative="1" as="geometry">
            <mxPoint x="870" y="230" as="sourcePoint" />
            <mxPoint x="920" y="180" as="targetPoint" />
          </mxGeometry>
        </mxCell>
        <mxCell id="K5wTqowA4LdvS_4ebITg-187" value="1" style="edgeLabel;html=1;align=center;verticalAlign=middle;resizable=0;points=[];" vertex="1" connectable="0" parent="K5wTqowA4LdvS_4ebITg-184">
          <mxGeometry x="-0.4823" y="1" relative="1" as="geometry">
            <mxPoint x="-20" y="10" as="offset" />
          </mxGeometry>
        </mxCell>
        <mxCell id="K5wTqowA4LdvS_4ebITg-185" value="" style="endArrow=none;html=1;rounded=0;entryX=0.5;entryY=0;entryDx=0;entryDy=0;" edge="1" parent="1" source="K5wTqowA4LdvS_4ebITg-87" target="K5wTqowA4LdvS_4ebITg-183">
          <mxGeometry width="50" height="50" relative="1" as="geometry">
            <mxPoint x="919.48" y="100" as="sourcePoint" />
            <mxPoint x="969.48" y="50" as="targetPoint" />
          </mxGeometry>
        </mxCell>
        <mxCell id="K5wTqowA4LdvS_4ebITg-186" value="N" style="edgeLabel;html=1;align=center;verticalAlign=middle;resizable=0;points=[];" vertex="1" connectable="0" parent="K5wTqowA4LdvS_4ebITg-185">
          <mxGeometry x="0.6214" y="3" relative="1" as="geometry">
            <mxPoint x="11" y="10" as="offset" />
          </mxGeometry>
        </mxCell>
        <mxCell id="K5wTqowA4LdvS_4ebITg-189" value="SELECTS" style="rhombus;whiteSpace=wrap;html=1;" vertex="1" parent="1">
          <mxGeometry x="770" width="80" height="80" as="geometry" />
        </mxCell>
        <mxCell id="K5wTqowA4LdvS_4ebITg-190" value="" style="endArrow=none;html=1;rounded=0;" edge="1" parent="1" source="K5wTqowA4LdvS_4ebITg-191" target="K5wTqowA4LdvS_4ebITg-189">
          <mxGeometry width="50" height="50" relative="1" as="geometry">
            <mxPoint x="1456.98" y="260" as="sourcePoint" />
            <mxPoint x="1456.98" y="250" as="targetPoint" />
          </mxGeometry>
        </mxCell>
        <mxCell id="K5wTqowA4LdvS_4ebITg-191" value="Selected_&lt;div&gt;unit_type&lt;/div&gt;" style="ellipse;whiteSpace=wrap;html=1;" vertex="1" parent="1">
          <mxGeometry x="960" y="40" width="100" height="40" as="geometry" />
        </mxCell>
        <mxCell id="K5wTqowA4LdvS_4ebITg-192" value="" style="endArrow=none;html=1;rounded=0;" edge="1" parent="1" source="K5wTqowA4LdvS_4ebITg-191" target="K5wTqowA4LdvS_4ebITg-183">
          <mxGeometry width="50" height="50" relative="1" as="geometry">
            <mxPoint x="939.48" y="140" as="sourcePoint" />
            <mxPoint x="989.48" y="90" as="targetPoint" />
          </mxGeometry>
        </mxCell>
        <mxCell id="K5wTqowA4LdvS_4ebITg-196" value="" style="endArrow=none;html=1;rounded=0;exitX=0;exitY=0.5;exitDx=0;exitDy=0;" edge="1" parent="1" source="K5wTqowA4LdvS_4ebITg-189" target="K5wTqowA4LdvS_4ebITg-7">
          <mxGeometry width="50" height="50" relative="1" as="geometry">
            <mxPoint x="890" y="270" as="sourcePoint" />
            <mxPoint x="940" y="220" as="targetPoint" />
          </mxGeometry>
        </mxCell>
        <mxCell id="K5wTqowA4LdvS_4ebITg-198" value="1" style="edgeLabel;html=1;align=center;verticalAlign=middle;resizable=0;points=[];" vertex="1" connectable="0" parent="K5wTqowA4LdvS_4ebITg-196">
          <mxGeometry x="-0.8946" y="1" relative="1" as="geometry">
            <mxPoint as="offset" />
          </mxGeometry>
        </mxCell>
        <mxCell id="K5wTqowA4LdvS_4ebITg-197" value="" style="endArrow=none;html=1;rounded=0;entryX=1;entryY=0.5;entryDx=0;entryDy=0;" edge="1" parent="1" source="K5wTqowA4LdvS_4ebITg-87" target="K5wTqowA4LdvS_4ebITg-189">
          <mxGeometry width="50" height="50" relative="1" as="geometry">
            <mxPoint x="939.48" y="140" as="sourcePoint" />
            <mxPoint x="989.48" y="90" as="targetPoint" />
          </mxGeometry>
        </mxCell>
        <mxCell id="K5wTqowA4LdvS_4ebITg-199" value="N" style="edgeLabel;html=1;align=center;verticalAlign=middle;resizable=0;points=[];" vertex="1" connectable="0" parent="K5wTqowA4LdvS_4ebITg-197">
          <mxGeometry x="0.6681" y="3" relative="1" as="geometry">
            <mxPoint as="offset" />
          </mxGeometry>
        </mxCell>
        <mxCell id="K5wTqowA4LdvS_4ebITg-200" value="INCLUDES" style="rhombus;whiteSpace=wrap;html=1;" vertex="1" parent="1">
          <mxGeometry x="430" y="442.25" width="80" height="80" as="geometry" />
        </mxCell>
        <mxCell id="K5wTqowA4LdvS_4ebITg-201" value="INCLUDES" style="rhombus;whiteSpace=wrap;html=1;" vertex="1" parent="1">
          <mxGeometry x="430" y="290" width="80" height="80" as="geometry" />
        </mxCell>
        <mxCell id="K5wTqowA4LdvS_4ebITg-202" value="" style="endArrow=none;html=1;rounded=0;entryX=0;entryY=0.5;entryDx=0;entryDy=0;" edge="1" parent="1" source="K5wTqowA4LdvS_4ebITg-2" target="K5wTqowA4LdvS_4ebITg-201">
          <mxGeometry width="50" height="50" relative="1" as="geometry">
            <mxPoint x="320" y="400" as="sourcePoint" />
            <mxPoint x="370" y="350" as="targetPoint" />
          </mxGeometry>
        </mxCell>
        <mxCell id="K5wTqowA4LdvS_4ebITg-204" value="M" style="edgeLabel;html=1;align=center;verticalAlign=middle;resizable=0;points=[];" vertex="1" connectable="0" parent="K5wTqowA4LdvS_4ebITg-202">
          <mxGeometry x="0.7991" y="-3" relative="1" as="geometry">
            <mxPoint y="10" as="offset" />
          </mxGeometry>
        </mxCell>
        <mxCell id="K5wTqowA4LdvS_4ebITg-205" value="" style="endArrow=none;html=1;rounded=0;entryX=1;entryY=0.5;entryDx=0;entryDy=0;" edge="1" parent="1" source="K5wTqowA4LdvS_4ebITg-9" target="K5wTqowA4LdvS_4ebITg-200">
          <mxGeometry width="50" height="50" relative="1" as="geometry">
            <mxPoint x="400" y="470" as="sourcePoint" />
            <mxPoint x="450" y="420" as="targetPoint" />
          </mxGeometry>
        </mxCell>
        <mxCell id="K5wTqowA4LdvS_4ebITg-206" value="N" style="edgeLabel;html=1;align=center;verticalAlign=middle;resizable=0;points=[];" vertex="1" connectable="0" parent="K5wTqowA4LdvS_4ebITg-205">
          <mxGeometry x="0.8426" y="-1" relative="1" as="geometry">
            <mxPoint y="-10" as="offset" />
          </mxGeometry>
        </mxCell>
        <mxCell id="K5wTqowA4LdvS_4ebITg-207" value="" style="endArrow=none;html=1;rounded=0;" edge="1" parent="1" source="K5wTqowA4LdvS_4ebITg-200" target="K5wTqowA4LdvS_4ebITg-157">
          <mxGeometry width="50" height="50" relative="1" as="geometry">
            <mxPoint x="400" y="470" as="sourcePoint" />
            <mxPoint x="450" y="420" as="targetPoint" />
          </mxGeometry>
        </mxCell>
        <mxCell id="K5wTqowA4LdvS_4ebITg-208" value="" style="endArrow=none;html=1;rounded=0;exitX=1;exitY=0.5;exitDx=0;exitDy=0;" edge="1" parent="1" source="K5wTqowA4LdvS_4ebITg-201" target="K5wTqowA4LdvS_4ebITg-11">
          <mxGeometry width="50" height="50" relative="1" as="geometry">
            <mxPoint x="710" y="380" as="sourcePoint" />
            <mxPoint x="590" y="320" as="targetPoint" />
          </mxGeometry>
        </mxCell>
        <mxCell id="K5wTqowA4LdvS_4ebITg-209" value="N" style="edgeLabel;html=1;align=center;verticalAlign=middle;resizable=0;points=[];" vertex="1" connectable="0" parent="K5wTqowA4LdvS_4ebITg-208">
          <mxGeometry x="-0.8848" relative="1" as="geometry">
            <mxPoint x="-1" y="-10" as="offset" />
          </mxGeometry>
        </mxCell>
        <mxCell id="K5wTqowA4LdvS_4ebITg-210" value="SELECTS" style="rhombus;whiteSpace=wrap;html=1;" vertex="1" parent="1">
          <mxGeometry x="600" y="180" width="80" height="80" as="geometry" />
        </mxCell>
        <mxCell id="K5wTqowA4LdvS_4ebITg-211" value="" style="endArrow=none;html=1;rounded=0;" edge="1" parent="1" source="K5wTqowA4LdvS_4ebITg-212" target="K5wTqowA4LdvS_4ebITg-210">
          <mxGeometry width="50" height="50" relative="1" as="geometry">
            <mxPoint x="672.5" y="175" as="sourcePoint" />
            <mxPoint x="672.5" y="165" as="targetPoint" />
          </mxGeometry>
        </mxCell>
        <mxCell id="K5wTqowA4LdvS_4ebITg-212" value="Selected_&lt;div&gt;ingredients&lt;/div&gt;" style="ellipse;whiteSpace=wrap;html=1;" vertex="1" parent="1">
          <mxGeometry x="430" y="210" width="100" height="40" as="geometry" />
        </mxCell>
        <mxCell id="K5wTqowA4LdvS_4ebITg-213" value="" style="endArrow=none;html=1;rounded=0;" edge="1" parent="1" source="K5wTqowA4LdvS_4ebITg-201" target="K5wTqowA4LdvS_4ebITg-212">
          <mxGeometry width="50" height="50" relative="1" as="geometry">
            <mxPoint x="560" y="330" as="sourcePoint" />
            <mxPoint x="610" y="280" as="targetPoint" />
          </mxGeometry>
        </mxCell>
        <mxCell id="K5wTqowA4LdvS_4ebITg-214" value="" style="endArrow=none;html=1;rounded=0;exitX=0;exitY=0.5;exitDx=0;exitDy=0;" edge="1" parent="1" source="K5wTqowA4LdvS_4ebITg-210" target="K5wTqowA4LdvS_4ebITg-7">
          <mxGeometry width="50" height="50" relative="1" as="geometry">
            <mxPoint x="560" y="330" as="sourcePoint" />
            <mxPoint x="610" y="280" as="targetPoint" />
          </mxGeometry>
        </mxCell>
        <mxCell id="K5wTqowA4LdvS_4ebITg-215" value="1" style="edgeLabel;html=1;align=center;verticalAlign=middle;resizable=0;points=[];" vertex="1" connectable="0" parent="K5wTqowA4LdvS_4ebITg-214">
          <mxGeometry x="-0.7426" relative="1" as="geometry">
            <mxPoint x="10" as="offset" />
          </mxGeometry>
        </mxCell>
        <mxCell id="K5wTqowA4LdvS_4ebITg-216" value="" style="endArrow=none;html=1;rounded=0;exitX=0.5;exitY=1;exitDx=0;exitDy=0;" edge="1" parent="1" source="K5wTqowA4LdvS_4ebITg-210" target="K5wTqowA4LdvS_4ebITg-11">
          <mxGeometry width="50" height="50" relative="1" as="geometry">
            <mxPoint x="560" y="330" as="sourcePoint" />
            <mxPoint x="610" y="280" as="targetPoint" />
          </mxGeometry>
        </mxCell>
        <mxCell id="K5wTqowA4LdvS_4ebITg-217" value="N" style="edgeLabel;html=1;align=center;verticalAlign=middle;resizable=0;points=[];" vertex="1" connectable="0" parent="K5wTqowA4LdvS_4ebITg-216">
          <mxGeometry x="-0.8048" y="-1" relative="1" as="geometry">
            <mxPoint x="-3" y="9" as="offset" />
          </mxGeometry>
        </mxCell>
        <mxCell id="K5wTqowA4LdvS_4ebITg-218" value="&lt;u&gt;Name&lt;/u&gt;" style="ellipse;whiteSpace=wrap;html=1;" vertex="1" parent="1">
          <mxGeometry x="1759.9999999999998" y="200" width="100" height="40" as="geometry" />
        </mxCell>
        <mxCell id="K5wTqowA4LdvS_4ebITg-219" value="&lt;u&gt;Id&lt;/u&gt;" style="ellipse;whiteSpace=wrap;html=1;" vertex="1" parent="1">
          <mxGeometry x="1759.9999999999998" y="140" width="100" height="40" as="geometry" />
        </mxCell>
        <mxCell id="K5wTqowA4LdvS_4ebITg-220" value="" style="endArrow=none;html=1;rounded=0;" edge="1" parent="1" source="K5wTqowA4LdvS_4ebITg-222" target="K5wTqowA4LdvS_4ebITg-218">
          <mxGeometry width="50" height="50" relative="1" as="geometry">
            <mxPoint x="1391.8899999999999" y="445" as="sourcePoint" />
            <mxPoint x="1441.8899999999999" y="395" as="targetPoint" />
          </mxGeometry>
        </mxCell>
        <mxCell id="K5wTqowA4LdvS_4ebITg-221" value="" style="endArrow=none;html=1;rounded=0;" edge="1" parent="1" source="K5wTqowA4LdvS_4ebITg-222" target="K5wTqowA4LdvS_4ebITg-219">
          <mxGeometry width="50" height="50" relative="1" as="geometry">
            <mxPoint x="1579.8899999999999" y="525" as="sourcePoint" />
            <mxPoint x="1649.8899999999999" y="490" as="targetPoint" />
          </mxGeometry>
        </mxCell>
        <mxCell id="K5wTqowA4LdvS_4ebITg-222" value="UNIT_NAME" style="rounded=0;whiteSpace=wrap;html=1;fontSize=14;" vertex="1" parent="1">
          <mxGeometry x="1533.9999999999998" y="195" width="120" height="30" as="geometry" />
        </mxCell>
        <mxCell id="K5wTqowA4LdvS_4ebITg-223" value="MANAGES" style="rhombus;whiteSpace=wrap;html=1;" vertex="1" parent="1">
          <mxGeometry x="1411.8899999999999" y="85" width="80" height="80" as="geometry" />
        </mxCell>
        <mxCell id="K5wTqowA4LdvS_4ebITg-224" value="" style="endArrow=none;html=1;rounded=0;entryX=0;entryY=0.5;entryDx=0;entryDy=0;" edge="1" parent="1" target="K5wTqowA4LdvS_4ebITg-223" source="K5wTqowA4LdvS_4ebITg-7">
          <mxGeometry width="50" height="50" relative="1" as="geometry">
            <mxPoint x="990" y="-90" as="sourcePoint" />
            <mxPoint x="1770" y="320" as="targetPoint" />
          </mxGeometry>
        </mxCell>
        <mxCell id="K5wTqowA4LdvS_4ebITg-225" value="1" style="edgeLabel;html=1;align=center;verticalAlign=middle;resizable=0;points=[];" vertex="1" connectable="0" parent="K5wTqowA4LdvS_4ebITg-224">
          <mxGeometry x="0.9182" y="-2" relative="1" as="geometry">
            <mxPoint x="10" y="-10" as="offset" />
          </mxGeometry>
        </mxCell>
        <mxCell id="K5wTqowA4LdvS_4ebITg-226" value="INCLUDES" style="rhombus;whiteSpace=wrap;html=1;" vertex="1" parent="1">
          <mxGeometry x="1380" y="265" width="80" height="80" as="geometry" />
        </mxCell>
        <mxCell id="K5wTqowA4LdvS_4ebITg-227" value="" style="endArrow=none;html=1;rounded=0;exitX=0;exitY=0.5;exitDx=0;exitDy=0;" edge="1" parent="1" source="K5wTqowA4LdvS_4ebITg-226" target="K5wTqowA4LdvS_4ebITg-11">
          <mxGeometry width="50" height="50" relative="1" as="geometry">
            <mxPoint x="1850" y="370" as="sourcePoint" />
            <mxPoint x="1961" y="435" as="targetPoint" />
          </mxGeometry>
        </mxCell>
        <mxCell id="K5wTqowA4LdvS_4ebITg-228" value="1" style="edgeLabel;html=1;align=center;verticalAlign=middle;resizable=0;points=[];" vertex="1" connectable="0" parent="K5wTqowA4LdvS_4ebITg-227">
          <mxGeometry x="-0.4823" y="1" relative="1" as="geometry">
            <mxPoint x="90" y="20" as="offset" />
          </mxGeometry>
        </mxCell>
        <mxCell id="K5wTqowA4LdvS_4ebITg-229" value="" style="endArrow=none;html=1;rounded=0;entryX=1;entryY=0.5;entryDx=0;entryDy=0;" edge="1" parent="1" source="K5wTqowA4LdvS_4ebITg-222" target="K5wTqowA4LdvS_4ebITg-226">
          <mxGeometry width="50" height="50" relative="1" as="geometry">
            <mxPoint x="1261.8899999999999" y="345" as="sourcePoint" />
            <mxPoint x="1311.8899999999999" y="295" as="targetPoint" />
          </mxGeometry>
        </mxCell>
        <mxCell id="K5wTqowA4LdvS_4ebITg-230" value="N" style="edgeLabel;html=1;align=center;verticalAlign=middle;resizable=0;points=[];" vertex="1" connectable="0" parent="K5wTqowA4LdvS_4ebITg-229">
          <mxGeometry x="0.6214" y="3" relative="1" as="geometry">
            <mxPoint x="31" y="-10" as="offset" />
          </mxGeometry>
        </mxCell>
        <mxCell id="K5wTqowA4LdvS_4ebITg-231" value="SELECTS" style="rhombus;whiteSpace=wrap;html=1;" vertex="1" parent="1">
          <mxGeometry x="1159.4799999999998" y="130" width="80" height="80" as="geometry" />
        </mxCell>
        <mxCell id="K5wTqowA4LdvS_4ebITg-232" value="" style="endArrow=none;html=1;rounded=0;" edge="1" parent="1" source="K5wTqowA4LdvS_4ebITg-233" target="K5wTqowA4LdvS_4ebITg-231">
          <mxGeometry width="50" height="50" relative="1" as="geometry">
            <mxPoint x="1799.3899999999999" y="505" as="sourcePoint" />
            <mxPoint x="1799.3899999999999" y="495" as="targetPoint" />
          </mxGeometry>
        </mxCell>
        <mxCell id="K5wTqowA4LdvS_4ebITg-233" value="Selected_&lt;div&gt;unit_name&lt;/div&gt;" style="ellipse;whiteSpace=wrap;html=1;" vertex="1" parent="1">
          <mxGeometry x="1279.9999999999998" y="220" width="100" height="40" as="geometry" />
        </mxCell>
        <mxCell id="K5wTqowA4LdvS_4ebITg-234" value="" style="endArrow=none;html=1;rounded=0;" edge="1" parent="1" source="K5wTqowA4LdvS_4ebITg-233" target="K5wTqowA4LdvS_4ebITg-226">
          <mxGeometry width="50" height="50" relative="1" as="geometry">
            <mxPoint x="1281.8899999999999" y="385" as="sourcePoint" />
            <mxPoint x="1331.8899999999999" y="335" as="targetPoint" />
          </mxGeometry>
        </mxCell>
        <mxCell id="K5wTqowA4LdvS_4ebITg-235" value="" style="endArrow=none;html=1;rounded=0;exitX=0;exitY=0.5;exitDx=0;exitDy=0;" edge="1" parent="1" source="K5wTqowA4LdvS_4ebITg-231" target="K5wTqowA4LdvS_4ebITg-7">
          <mxGeometry width="50" height="50" relative="1" as="geometry">
            <mxPoint x="1870" y="410" as="sourcePoint" />
            <mxPoint x="770" y="120" as="targetPoint" />
          </mxGeometry>
        </mxCell>
        <mxCell id="K5wTqowA4LdvS_4ebITg-236" value="1" style="edgeLabel;html=1;align=center;verticalAlign=middle;resizable=0;points=[];" vertex="1" connectable="0" parent="K5wTqowA4LdvS_4ebITg-235">
          <mxGeometry x="-0.8946" y="1" relative="1" as="geometry">
            <mxPoint as="offset" />
          </mxGeometry>
        </mxCell>
        <mxCell id="K5wTqowA4LdvS_4ebITg-237" value="" style="endArrow=none;html=1;rounded=0;entryX=1;entryY=0.5;entryDx=0;entryDy=0;" edge="1" parent="1" source="K5wTqowA4LdvS_4ebITg-222" target="K5wTqowA4LdvS_4ebITg-231">
          <mxGeometry width="50" height="50" relative="1" as="geometry">
            <mxPoint x="1281.8899999999999" y="385" as="sourcePoint" />
            <mxPoint x="1331.8899999999999" y="335" as="targetPoint" />
          </mxGeometry>
        </mxCell>
        <mxCell id="K5wTqowA4LdvS_4ebITg-238" value="N" style="edgeLabel;html=1;align=center;verticalAlign=middle;resizable=0;points=[];" vertex="1" connectable="0" parent="K5wTqowA4LdvS_4ebITg-237">
          <mxGeometry x="0.6681" y="3" relative="1" as="geometry">
            <mxPoint x="-30" as="offset" />
          </mxGeometry>
        </mxCell>
        <mxCell id="K5wTqowA4LdvS_4ebITg-239" value="" style="endArrow=none;html=1;rounded=0;entryX=1;entryY=0.5;entryDx=0;entryDy=0;" edge="1" parent="1" source="K5wTqowA4LdvS_4ebITg-222" target="K5wTqowA4LdvS_4ebITg-223">
          <mxGeometry width="50" height="50" relative="1" as="geometry">
            <mxPoint x="1531.8899999999999" y="145" as="sourcePoint" />
            <mxPoint x="1581.8899999999999" y="95" as="targetPoint" />
          </mxGeometry>
        </mxCell>
        <mxCell id="K5wTqowA4LdvS_4ebITg-240" value="N" style="edgeLabel;html=1;align=center;verticalAlign=middle;resizable=0;points=[];" vertex="1" connectable="0" parent="K5wTqowA4LdvS_4ebITg-239">
          <mxGeometry x="0.7015" y="6" relative="1" as="geometry">
            <mxPoint x="-11" y="-20" as="offset" />
          </mxGeometry>
        </mxCell>
      </root>
    </mxGraphModel>
  </diagram>
</mxfile>
